<?xml version="1.0" encoding="UTF-8" standalone="no"?><svg xmlns="http://www.w3.org/2000/svg" xmlns:xlink="http://www.w3.org/1999/xlink" clip-rule="evenodd" stroke-miterlimit="10" viewBox="0 0 1920 1080"><desc>SVG generated by Keynote</desc><defs></defs><g transform="matrix(1.00, 0.00, -0.00, -1.00, 0.0, 1080.0)"><path d="M 0.0 1080.0 L 1920.0 1080.0 L 1920.0 0.0 L 0.0 0.0 Z M 0.0 1080.0 " fill="#FEFFFF"></path><text xml:space="preserve" font-family="Gotham-Light,Gotham" font-size="75.0" fill="#000000" transform="matrix(1.00, 0.00, -0.00, -1.00, 823.6, 517.5)">e</text><text xml:space="preserve" font-family="Gotham-Light,Gotham" font-size="75.0" fill="#000000" transform="matrix(1.00, 0.00, -0.00, -1.00, 865.2, 517.5)">x</text><text xml:space="preserve" font-family="Gotham-Light,Gotham" font-size="75.0" fill="#000000" transform="matrix(1.00, 0.00, -0.00, -1.00, 906.8, 517.5)">a</text><text xml:space="preserve" font-family="Gotham-Light,Gotham" font-size="75.0" fill="#000000" transform="matrix(1.00, 0.00, -0.00, -1.00, 949.9, 517.5)">c</text><text xml:space="preserve" font-family="Gotham-Light,Gotham" font-size="75.0" fill="#000000" transform="matrix(1.00, 0.00, -0.00, -1.00, 992.7, 517.5)">t</text><text xml:space="preserve" font-family="Gotham-Light,Gotham" font-size="75.0" fill="#000000" transform="matrix(1.00, 0.00, -0.00, -1.00, 1022.7, 517.5)">l</text><text xml:space="preserve" font-family="Gotham-Light,Gotham" font-size="75.0" fill="#000000" transform="matrix(1.00, 0.00, -0.00, -1.00, 1041.4, 517.5)">y</text><text xml:space="preserve" font-family="Gotham-Light,Gotham" font-size="75.0" fill="#000000" transform="matrix(1.00, 0.00, -0.00, -1.00, 1079.1, 517.5)">.</text></g></svg>