<?xml version="1.0" encoding="UTF-8" standalone="no"?><svg xmlns="http://www.w3.org/2000/svg" xmlns:xlink="http://www.w3.org/1999/xlink" clip-rule="evenodd" stroke-miterlimit="10" viewBox="0 0 1920 1080"><desc>SVG generated by Keynote</desc><defs></defs><g transform="matrix(1.00, 0.00, -0.00, -1.00, 0.0, 1080.0)"><path d="M 0.0 1080.0 L 1920.0 1080.0 L 1920.0 0.0 L 0.0 0.0 Z M 0.0 1080.0 " fill="#FEFFFF"></path><text xml:space="preserve" font-family="Gotham-Light,Gotham" font-size="78.0" fill="#000000" transform="matrix(1.00, 0.00, -0.00, -1.00, 817.8, 516.4)">l</text><text xml:space="preserve" font-family="Gotham-Light,Gotham" font-size="78.0" fill="#000000" transform="matrix(1.00, 0.00, -0.00, -1.00, 837.2, 516.4)">i</text><text xml:space="preserve" font-family="Gotham-Light,Gotham" font-size="78.0" fill="#000000" transform="matrix(1.00, 0.00, -0.00, -1.00, 856.6, 516.4)">t</text><text xml:space="preserve" font-family="Gotham-Light,Gotham" font-size="78.0" fill="#000000" transform="matrix(1.00, 0.00, -0.00, -1.00, 886.6, 516.4)">e</text><text xml:space="preserve" font-family="Gotham-Light,Gotham" font-size="78.0" fill="#000000" transform="matrix(1.00, 0.00, -0.00, -1.00, 932.2, 516.4)">r</text><text xml:space="preserve" font-family="Gotham-Light,Gotham" font-size="78.0" fill="#000000" transform="matrix(1.00, 0.00, -0.00, -1.00, 961.4, 516.4)">a</text><text xml:space="preserve" font-family="Gotham-Light,Gotham" font-size="78.0" fill="#000000" transform="matrix(1.00, 0.00, -0.00, -1.00, 1006.2, 516.4)">l</text><text xml:space="preserve" font-family="Gotham-Light,Gotham" font-size="78.0" fill="#000000" transform="matrix(1.00, 0.00, -0.00, -1.00, 1025.6, 516.4)">l</text><text xml:space="preserve" font-family="Gotham-Light,Gotham" font-size="78.0" fill="#000000" transform="matrix(1.00, 0.00, -0.00, -1.00, 1045.1, 516.4)">y</text><text xml:space="preserve" font-family="Gotham-Light,Gotham" font-size="78.0" fill="#000000" transform="matrix(1.00, 0.00, -0.00, -1.00, 1084.3, 516.4)">.</text></g></svg>