<?xml version="1.0" encoding="UTF-8" standalone="no"?><svg xmlns="http://www.w3.org/2000/svg" xmlns:xlink="http://www.w3.org/1999/xlink" clip-rule="evenodd" stroke-miterlimit="10" viewBox="0 0 1920 1080"><desc>SVG generated by Keynote</desc><defs></defs><g transform="matrix(1.00, 0.00, -0.00, -1.00, 0.0, 1080.0)"><path d="M 0.0 1080.0 L 1920.0 1080.0 L 1920.0 0.0 L 0.0 0.0 Z M 0.0 1080.0 " fill="#FEFFFF"></path><text xml:space="preserve" font-family="Gotham-Light,Gotham" font-size="78.0" fill="#000000" transform="matrix(1.00, 0.00, -0.00, -1.00, 594.6, 516.4)">…</text><text xml:space="preserve" font-family="Gotham-Light,Gotham" font-size="78.0" fill="#000000" transform="matrix(1.00, 0.00, -0.00, -1.00, 647.7, 516.4)"> </text><text xml:space="preserve" font-family="Gotham-Light,Gotham" font-size="78.0" fill="#000000" transform="matrix(1.00, 0.00, -0.00, -1.00, 671.1, 516.4)">w</text><text xml:space="preserve" font-family="Gotham-Light,Gotham" font-size="78.0" fill="#000000" transform="matrix(1.00, 0.00, -0.00, -1.00, 736.3, 516.4)">e</text><text xml:space="preserve" font-family="Gotham-Light,Gotham" font-size="78.0" fill="#000000" transform="matrix(1.00, 0.00, -0.00, -1.00, 781.8, 516.4)"> </text><text xml:space="preserve" font-family="Gotham-Light,Gotham" font-size="78.0" fill="#000000" transform="matrix(1.00, 0.00, -0.00, -1.00, 805.2, 516.4)">a</text><text xml:space="preserve" font-family="Gotham-Light,Gotham" font-size="78.0" fill="#000000" transform="matrix(1.00, 0.00, -0.00, -1.00, 850.0, 516.4)">r</text><text xml:space="preserve" font-family="Gotham-Light,Gotham" font-size="78.0" fill="#000000" transform="matrix(1.00, 0.00, -0.00, -1.00, 879.3, 516.4)">e</text><text xml:space="preserve" font-family="Gotham-Light,Gotham" font-size="78.0" fill="#000000" transform="matrix(1.00, 0.00, -0.00, -1.00, 924.8, 516.4)"> </text><text xml:space="preserve" font-family="Gotham-Light,Gotham" font-size="78.0" fill="#000000" transform="matrix(1.00, 0.00, -0.00, -1.00, 948.2, 516.4)">e</text><text xml:space="preserve" font-family="Gotham-Light,Gotham" font-size="78.0" fill="#000000" transform="matrix(1.00, 0.00, -0.00, -1.00, 991.8, 516.4)">v</text><text xml:space="preserve" font-family="Gotham-Light,Gotham" font-size="78.0" fill="#000000" transform="matrix(1.00, 0.00, -0.00, -1.00, 1034.9, 516.4)">o</text><text xml:space="preserve" font-family="Gotham-Light,Gotham" font-size="78.0" fill="#000000" transform="matrix(1.00, 0.00, -0.00, -1.00, 1084.8, 516.4)">l</text><text xml:space="preserve" font-family="Gotham-Light,Gotham" font-size="78.0" fill="#000000" transform="matrix(1.00, 0.00, -0.00, -1.00, 1104.2, 516.4)">v</text><text xml:space="preserve" font-family="Gotham-Light,Gotham" font-size="78.0" fill="#000000" transform="matrix(1.00, 0.00, -0.00, -1.00, 1149.6, 516.4)">i</text><text xml:space="preserve" font-family="Gotham-Light,Gotham" font-size="78.0" fill="#000000" transform="matrix(1.00, 0.00, -0.00, -1.00, 1169.0, 516.4)">n</text><text xml:space="preserve" font-family="Gotham-Light,Gotham" font-size="78.0" fill="#000000" transform="matrix(1.00, 0.00, -0.00, -1.00, 1216.8, 516.4)">g</text><text xml:space="preserve" font-family="Gotham-Light,Gotham" font-size="78.0" fill="#000000" transform="matrix(1.00, 0.00, -0.00, -1.00, 1268.3, 516.4)">…</text></g></svg>