<?xml version="1.0" encoding="UTF-8" standalone="no"?><svg xmlns="http://www.w3.org/2000/svg" xmlns:xlink="http://www.w3.org/1999/xlink" clip-rule="evenodd" stroke-miterlimit="10" viewBox="0 0 1920 1080"><desc>SVG generated by Keynote</desc><defs></defs><g transform="matrix(1.00, 0.00, -0.00, -1.00, 0.0, 1080.0)"><path d="M 0.0 1080.0 L 1920.0 1080.0 L 1920.0 0.0 L 0.0 0.0 Z M 0.0 1080.0 " fill="#FEFFFF"></path><text xml:space="preserve" font-family="Gotham-Light,Gotham" font-size="75.0" fill="#000000" transform="matrix(1.00, 0.00, -0.00, -1.00, 555.4, 517.5)">…</text><text xml:space="preserve" font-family="Gotham-Light,Gotham" font-size="75.0" fill="#000000" transform="matrix(1.00, 0.00, -0.00, -1.00, 606.4, 517.5)"> </text><text xml:space="preserve" font-family="Gotham-Light,Gotham" font-size="75.0" fill="#000000" transform="matrix(1.00, 0.00, -0.00, -1.00, 628.9, 517.5)">b</text><text xml:space="preserve" font-family="Gotham-Light,Gotham" font-size="75.0" fill="#000000" transform="matrix(1.00, 0.00, -0.00, -1.00, 676.5, 517.5)">y</text><text xml:space="preserve" font-family="Gotham-Light,Gotham" font-size="75.0" fill="#000000" transform="matrix(1.00, 0.00, -0.00, -1.00, 720.6, 517.5)"> </text><text xml:space="preserve" font-family="Gotham-Light,Gotham" font-size="75.0" fill="#000000" transform="matrix(1.00, 0.00, -0.00, -1.00, 743.1, 517.5)">p</text><text xml:space="preserve" font-family="Gotham-Light,Gotham" font-size="75.0" fill="#000000" transform="matrix(1.00, 0.00, -0.00, -1.00, 792.6, 517.5)">u</text><text xml:space="preserve" font-family="Gotham-Light,Gotham" font-size="75.0" fill="#000000" transform="matrix(1.00, 0.00, -0.00, -1.00, 838.6, 517.5)">s</text><text xml:space="preserve" font-family="Gotham-Light,Gotham" font-size="75.0" fill="#000000" transform="matrix(1.00, 0.00, -0.00, -1.00, 875.9, 517.5)">h</text><text xml:space="preserve" font-family="Gotham-Light,Gotham" font-size="75.0" fill="#000000" transform="matrix(1.00, 0.00, -0.00, -1.00, 921.9, 517.5)">i</text><text xml:space="preserve" font-family="Gotham-Light,Gotham" font-size="75.0" fill="#000000" transform="matrix(1.00, 0.00, -0.00, -1.00, 940.5, 517.5)">n</text><text xml:space="preserve" font-family="Gotham-Light,Gotham" font-size="75.0" fill="#000000" transform="matrix(1.00, 0.00, -0.00, -1.00, 986.5, 517.5)">g</text><text xml:space="preserve" font-family="Gotham-Light,Gotham" font-size="75.0" fill="#000000" transform="matrix(1.00, 0.00, -0.00, -1.00, 1036.0, 517.5)"> </text><text xml:space="preserve" font-family="Gotham-Light,Gotham" font-size="75.0" fill="#000000" transform="matrix(1.00, 0.00, -0.00, -1.00, 1058.5, 517.5)">i</text><text xml:space="preserve" font-family="Gotham-Light,Gotham" font-size="75.0" fill="#000000" transform="matrix(1.00, 0.00, -0.00, -1.00, 1077.2, 517.5)">t</text><text xml:space="preserve" font-family="Gotham-Light,Gotham" font-size="75.0" fill="#000000" transform="matrix(1.00, 0.00, -0.00, -1.00, 1107.2, 517.5)"> </text><text xml:space="preserve" font-family="Gotham-Light,Gotham" font-size="75.0" fill="#000000" transform="matrix(1.00, 0.00, -0.00, -1.00, 1129.7, 517.5)">a</text><text xml:space="preserve" font-family="Gotham-Light,Gotham" font-size="75.0" fill="#000000" transform="matrix(1.00, 0.00, -0.00, -1.00, 1171.2, 517.5)">w</text><text xml:space="preserve" font-family="Gotham-Light,Gotham" font-size="75.0" fill="#000000" transform="matrix(1.00, 0.00, -0.00, -1.00, 1234.3, 517.5)">a</text><text xml:space="preserve" font-family="Gotham-Light,Gotham" font-size="75.0" fill="#000000" transform="matrix(1.00, 0.00, -0.00, -1.00, 1275.9, 517.5)">y</text><text xml:space="preserve" font-family="Gotham-Light,Gotham" font-size="75.0" fill="#000000" transform="matrix(1.00, 0.00, -0.00, -1.00, 1313.6, 517.5)">…</text></g></svg>