<?xml version="1.0" encoding="UTF-8" standalone="no"?><svg xmlns="http://www.w3.org/2000/svg" xmlns:xlink="http://www.w3.org/1999/xlink" clip-rule="evenodd" stroke-miterlimit="10" viewBox="0 0 1920 1080"><desc>SVG generated by Keynote</desc><defs></defs><g transform="matrix(1.00, 0.00, -0.00, -1.00, 0.0, 1080.0)"><path d="M 0.0 1080.0 L 1920.0 1080.0 L 1920.0 0.0 L 0.0 0.0 Z M 0.0 1080.0 " fill="#FEFFFF"></path><text xml:space="preserve" font-family="Gotham-Light,Gotham" font-size="78.0" fill="#000000" transform="matrix(1.00, 0.00, -0.00, -1.00, 355.9, 516.4)">ï¬</text><text xml:space="preserve" font-family="Gotham-Light,Gotham" font-size="78.0" fill="#000000" transform="matrix(1.00, 0.00, -0.00, -1.00, 403.6, 516.4)">g</text><text xml:space="preserve" font-family="Gotham-Light,Gotham" font-size="78.0" fill="#000000" transform="matrix(1.00, 0.00, -0.00, -1.00, 455.1, 516.4)">u</text><text xml:space="preserve" font-family="Gotham-Light,Gotham" font-size="78.0" fill="#000000" transform="matrix(1.00, 0.00, -0.00, -1.00, 502.9, 516.4)">r</text><text xml:space="preserve" font-family="Gotham-Light,Gotham" font-size="78.0" fill="#000000" transform="matrix(1.00, 0.00, -0.00, -1.00, 532.1, 516.4)">a</text><text xml:space="preserve" font-family="Gotham-Light,Gotham" font-size="78.0" fill="#000000" transform="matrix(1.00, 0.00, -0.00, -1.00, 576.5, 516.4)">t</text><text xml:space="preserve" font-family="Gotham-Light,Gotham" font-size="78.0" fill="#000000" transform="matrix(1.00, 0.00, -0.00, -1.00, 607.7, 516.4)">i</text><text xml:space="preserve" font-family="Gotham-Light,Gotham" font-size="78.0" fill="#000000" transform="matrix(1.00, 0.00, -0.00, -1.00, 627.1, 516.4)">v</text><text xml:space="preserve" font-family="Gotham-Light,Gotham" font-size="78.0" fill="#000000" transform="matrix(1.00, 0.00, -0.00, -1.00, 670.2, 516.4)">e</text><text xml:space="preserve" font-family="Gotham-Light,Gotham" font-size="78.0" fill="#000000" transform="matrix(1.00, 0.00, -0.00, -1.00, 715.7, 516.4)">l</text><text xml:space="preserve" font-family="Gotham-Light,Gotham" font-size="78.0" fill="#000000" transform="matrix(1.00, 0.00, -0.00, -1.00, 735.2, 516.4)">y</text><text xml:space="preserve" font-family="Gotham-Light,Gotham" font-size="78.0" fill="#000000" transform="matrix(1.00, 0.00, -0.00, -1.00, 781.0, 516.4)"> </text><text xml:space="preserve" font-family="Gotham-Light,Gotham" font-size="78.0" fill="#000000" transform="matrix(1.00, 0.00, -0.00, -1.00, 804.4, 516.4)">s</text><text xml:space="preserve" font-family="Gotham-Light,Gotham" font-size="78.0" fill="#000000" transform="matrix(1.00, 0.00, -0.00, -1.00, 843.2, 516.4)">p</text><text xml:space="preserve" font-family="Gotham-Light,Gotham" font-size="78.0" fill="#000000" transform="matrix(1.00, 0.00, -0.00, -1.00, 894.7, 516.4)">e</text><text xml:space="preserve" font-family="Gotham-Light,Gotham" font-size="78.0" fill="#000000" transform="matrix(1.00, 0.00, -0.00, -1.00, 940.2, 516.4)">a</text><text xml:space="preserve" font-family="Gotham-Light,Gotham" font-size="78.0" fill="#000000" transform="matrix(1.00, 0.00, -0.00, -1.00, 985.0, 516.4)">k</text><text xml:space="preserve" font-family="Gotham-Light,Gotham" font-size="78.0" fill="#000000" transform="matrix(1.00, 0.00, -0.00, -1.00, 1028.7, 516.4)">i</text><text xml:space="preserve" font-family="Gotham-Light,Gotham" font-size="78.0" fill="#000000" transform="matrix(1.00, 0.00, -0.00, -1.00, 1048.1, 516.4)">n</text><text xml:space="preserve" font-family="Gotham-Light,Gotham" font-size="78.0" fill="#000000" transform="matrix(1.00, 0.00, -0.00, -1.00, 1095.9, 516.4)">g</text><text xml:space="preserve" font-family="Gotham-Light,Gotham" font-size="78.0" fill="#000000" transform="matrix(1.00, 0.00, -0.00, -1.00, 1147.4, 516.4)">,</text><text xml:space="preserve" font-family="Gotham-Light,Gotham" font-size="78.0" fill="#000000" transform="matrix(1.00, 0.00, -0.00, -1.00, 1165.3, 516.4)"> </text><text xml:space="preserve" font-family="Gotham-Light,Gotham" font-size="78.0" fill="#000000" transform="matrix(1.00, 0.00, -0.00, -1.00, 1188.7, 516.4)">o</text><text xml:space="preserve" font-family="Gotham-Light,Gotham" font-size="78.0" fill="#000000" transform="matrix(1.00, 0.00, -0.00, -1.00, 1238.7, 516.4)">f</text><text xml:space="preserve" font-family="Gotham-Light,Gotham" font-size="78.0" fill="#000000" transform="matrix(1.00, 0.00, -0.00, -1.00, 1266.9, 516.4)"> </text><text xml:space="preserve" font-family="Gotham-Light,Gotham" font-size="78.0" fill="#000000" transform="matrix(1.00, 0.00, -0.00, -1.00, 1290.3, 516.4)">c</text><text xml:space="preserve" font-family="Gotham-Light,Gotham" font-size="78.0" fill="#000000" transform="matrix(1.00, 0.00, -0.00, -1.00, 1333.7, 516.4)">o</text><text xml:space="preserve" font-family="Gotham-Light,Gotham" font-size="78.0" fill="#000000" transform="matrix(1.00, 0.00, -0.00, -1.00, 1383.6, 516.4)">u</text><text xml:space="preserve" font-family="Gotham-Light,Gotham" font-size="78.0" fill="#000000" transform="matrix(1.00, 0.00, -0.00, -1.00, 1431.4, 516.4)">r</text><text xml:space="preserve" font-family="Gotham-Light,Gotham" font-size="78.0" fill="#000000" transform="matrix(1.00, 0.00, -0.00, -1.00, 1462.6, 516.4)">s</text><text xml:space="preserve" font-family="Gotham-Light,Gotham" font-size="78.0" fill="#000000" transform="matrix(1.00, 0.00, -0.00, -1.00, 1501.4, 516.4)">e</text><text xml:space="preserve" font-family="Gotham-Light,Gotham" font-size="78.0" fill="#000000" transform="matrix(1.00, 0.00, -0.00, -1.00, 1546.1, 516.4)">.</text></g></svg>