<?xml version="1.0" encoding="UTF-8" standalone="no"?><svg xmlns="http://www.w3.org/2000/svg" xmlns:xlink="http://www.w3.org/1999/xlink" clip-rule="evenodd" stroke-miterlimit="10" viewBox="0 0 1920 1080"><desc>SVG generated by Keynote</desc><defs></defs><g transform="matrix(1.00, 0.00, -0.00, -1.00, 0.0, 1080.0)"><path d="M 0.0 1080.0 L 1920.0 1080.0 L 1920.0 0.0 L 0.0 0.0 Z M 0.0 1080.0 " fill="#FEFFFF"></path><text xml:space="preserve" font-family="Gotham-Light,Gotham" font-size="60.0" fill="#000000" transform="matrix(1.00, 0.00, -0.00, -1.00, 131.6, 558.0)">T</text><text xml:space="preserve" font-family="Gotham-Light,Gotham" font-size="60.0" fill="#000000" transform="matrix(1.00, 0.00, -0.00, -1.00, 169.3, 558.0)">h</text><text xml:space="preserve" font-family="Gotham-Light,Gotham" font-size="60.0" fill="#000000" transform="matrix(1.00, 0.00, -0.00, -1.00, 206.1, 558.0)">i</text><text xml:space="preserve" font-family="Gotham-Light,Gotham" font-size="60.0" fill="#000000" transform="matrix(1.00, 0.00, -0.00, -1.00, 221.0, 558.0)">s</text><text xml:space="preserve" font-family="Gotham-Light,Gotham" font-size="60.0" fill="#000000" transform="matrix(1.00, 0.00, -0.00, -1.00, 250.9, 558.0)"> </text><text xml:space="preserve" font-family="Gotham-Light,Gotham" font-size="60.0" fill="#000000" transform="matrix(1.00, 0.00, -0.00, -1.00, 268.9, 558.0)">s</text><text xml:space="preserve" font-family="Gotham-Light,Gotham" font-size="60.0" fill="#000000" transform="matrix(1.00, 0.00, -0.00, -1.00, 298.7, 558.0)">p</text><text xml:space="preserve" font-family="Gotham-Light,Gotham" font-size="60.0" fill="#000000" transform="matrix(1.00, 0.00, -0.00, -1.00, 338.3, 558.0)">a</text><text xml:space="preserve" font-family="Gotham-Light,Gotham" font-size="60.0" fill="#000000" transform="matrix(1.00, 0.00, -0.00, -1.00, 372.7, 558.0)">c</text><text xml:space="preserve" font-family="Gotham-Light,Gotham" font-size="60.0" fill="#000000" transform="matrix(1.00, 0.00, -0.00, -1.00, 406.1, 558.0)">e</text><text xml:space="preserve" font-family="Gotham-Light,Gotham" font-size="60.0" fill="#000000" transform="matrix(1.00, 0.00, -0.00, -1.00, 441.1, 558.0)"> </text><text xml:space="preserve" font-family="Gotham-Light,Gotham" font-size="60.0" fill="#000000" transform="matrix(1.00, 0.00, -0.00, -1.00, 459.1, 558.0)">i</text><text xml:space="preserve" font-family="Gotham-Light,Gotham" font-size="60.0" fill="#000000" transform="matrix(1.00, 0.00, -0.00, -1.00, 474.1, 558.0)">s</text><text xml:space="preserve" font-family="Gotham-Light,Gotham" font-size="60.0" fill="#000000" transform="matrix(1.00, 0.00, -0.00, -1.00, 503.9, 558.0)"> </text><text xml:space="preserve" font-family="Gotham-Light,Gotham" font-size="60.0" fill="#000000" transform="matrix(1.00, 0.00, -0.00, -1.00, 521.9, 558.0)">ﬁ</text><text xml:space="preserve" font-family="Gotham-Light,Gotham" font-size="60.0" fill="#000000" transform="matrix(1.00, 0.00, -0.00, -1.00, 558.5, 558.0)">l</text><text xml:space="preserve" font-family="Gotham-Light,Gotham" font-size="60.0" fill="#000000" transform="matrix(1.00, 0.00, -0.00, -1.00, 573.5, 558.0)">l</text><text xml:space="preserve" font-family="Gotham-Light,Gotham" font-size="60.0" fill="#000000" transform="matrix(1.00, 0.00, -0.00, -1.00, 588.4, 558.0)">e</text><text xml:space="preserve" font-family="Gotham-Light,Gotham" font-size="60.0" fill="#000000" transform="matrix(1.00, 0.00, -0.00, -1.00, 623.5, 558.0)">d</text><text xml:space="preserve" font-family="Gotham-Light,Gotham" font-size="60.0" fill="#000000" transform="matrix(1.00, 0.00, -0.00, -1.00, 663.1, 558.0)"> </text><text xml:space="preserve" font-family="Gotham-Light,Gotham" font-size="60.0" fill="#000000" transform="matrix(1.00, 0.00, -0.00, -1.00, 681.1, 558.0)">w</text><text xml:space="preserve" font-family="Gotham-Light,Gotham" font-size="60.0" fill="#000000" transform="matrix(1.00, 0.00, -0.00, -1.00, 732.7, 558.0)">i</text><text xml:space="preserve" font-family="Gotham-Light,Gotham" font-size="60.0" fill="#000000" transform="matrix(1.00, 0.00, -0.00, -1.00, 747.7, 558.0)">t</text><text xml:space="preserve" font-family="Gotham-Light,Gotham" font-size="60.0" fill="#000000" transform="matrix(1.00, 0.00, -0.00, -1.00, 771.7, 558.0)">h</text><text xml:space="preserve" font-family="Gotham-Light,Gotham" font-size="60.0" fill="#000000" transform="matrix(1.00, 0.00, -0.00, -1.00, 808.4, 558.0)"> </text><text xml:space="preserve" font-family="Gotham-Light,Gotham" font-size="60.0" fill="#000000" transform="matrix(1.00, 0.00, -0.00, -1.00, 826.4, 558.0)">t</text><text xml:space="preserve" font-family="Gotham-Light,Gotham" font-size="60.0" fill="#000000" transform="matrix(1.00, 0.00, -0.00, -1.00, 850.4, 558.0)">h</text><text xml:space="preserve" font-family="Gotham-Light,Gotham" font-size="60.0" fill="#000000" transform="matrix(1.00, 0.00, -0.00, -1.00, 887.2, 558.0)">e</text><text xml:space="preserve" font-family="Gotham-Light,Gotham" font-size="60.0" fill="#000000" transform="matrix(1.00, 0.00, -0.00, -1.00, 922.3, 558.0)"> </text><text xml:space="preserve" font-family="Gotham-Light,Gotham" font-size="60.0" fill="#000000" transform="matrix(1.00, 0.00, -0.00, -1.00, 940.3, 558.0)">c</text><text xml:space="preserve" font-family="Gotham-Light,Gotham" font-size="60.0" fill="#000000" transform="matrix(1.00, 0.00, -0.00, -1.00, 973.6, 558.0)">o</text><text xml:space="preserve" font-family="Gotham-Light,Gotham" font-size="60.0" fill="#000000" transform="matrix(1.00, 0.00, -0.00, -1.00, 1012.0, 558.0)">n</text><text xml:space="preserve" font-family="Gotham-Light,Gotham" font-size="60.0" fill="#000000" transform="matrix(1.00, 0.00, -0.00, -1.00, 1048.8, 558.0)">t</text><text xml:space="preserve" font-family="Gotham-Light,Gotham" font-size="60.0" fill="#000000" transform="matrix(1.00, 0.00, -0.00, -1.00, 1071.9, 558.0)">e</text><text xml:space="preserve" font-family="Gotham-Light,Gotham" font-size="60.0" fill="#000000" transform="matrix(1.00, 0.00, -0.00, -1.00, 1106.9, 558.0)">n</text><text xml:space="preserve" font-family="Gotham-Light,Gotham" font-size="60.0" fill="#000000" transform="matrix(1.00, 0.00, -0.00, -1.00, 1143.7, 558.0)">t</text><text xml:space="preserve" font-family="Gotham-Light,Gotham" font-size="60.0" fill="#000000" transform="matrix(1.00, 0.00, -0.00, -1.00, 1167.7, 558.0)"> </text><text xml:space="preserve" font-family="Gotham-Light,Gotham" font-size="60.0" fill="#000000" transform="matrix(1.00, 0.00, -0.00, -1.00, 1185.7, 558.0)">y</text><text xml:space="preserve" font-family="Gotham-Light,Gotham" font-size="60.0" fill="#000000" transform="matrix(1.00, 0.00, -0.00, -1.00, 1219.2, 558.0)">o</text><text xml:space="preserve" font-family="Gotham-Light,Gotham" font-size="60.0" fill="#000000" transform="matrix(1.00, 0.00, -0.00, -1.00, 1257.6, 558.0)">u</text><text xml:space="preserve" font-family="Gotham-Light,Gotham" font-size="60.0" fill="#000000" transform="matrix(1.00, 0.00, -0.00, -1.00, 1294.4, 558.0)">’</text><text xml:space="preserve" font-family="Gotham-Light,Gotham" font-size="60.0" fill="#000000" transform="matrix(1.00, 0.00, -0.00, -1.00, 1308.2, 558.0)">v</text><text xml:space="preserve" font-family="Gotham-Light,Gotham" font-size="60.0" fill="#000000" transform="matrix(1.00, 0.00, -0.00, -1.00, 1341.3, 558.0)">e</text><text xml:space="preserve" font-family="Gotham-Light,Gotham" font-size="60.0" fill="#000000" transform="matrix(1.00, 0.00, -0.00, -1.00, 1376.3, 558.0)"> </text><text xml:space="preserve" font-family="Gotham-Light,Gotham" font-size="60.0" fill="#000000" transform="matrix(1.00, 0.00, -0.00, -1.00, 1394.3, 558.0)">g</text><text xml:space="preserve" font-family="Gotham-Light,Gotham" font-size="60.0" fill="#000000" transform="matrix(1.00, 0.00, -0.00, -1.00, 1433.9, 558.0)">e</text><text xml:space="preserve" font-family="Gotham-Light,Gotham" font-size="60.0" fill="#000000" transform="matrix(1.00, 0.00, -0.00, -1.00, 1469.0, 558.0)">n</text><text xml:space="preserve" font-family="Gotham-Light,Gotham" font-size="60.0" fill="#000000" transform="matrix(1.00, 0.00, -0.00, -1.00, 1505.8, 558.0)">e</text><text xml:space="preserve" font-family="Gotham-Light,Gotham" font-size="60.0" fill="#000000" transform="matrix(1.00, 0.00, -0.00, -1.00, 1540.8, 558.0)">r</text><text xml:space="preserve" font-family="Gotham-Light,Gotham" font-size="60.0" fill="#000000" transform="matrix(1.00, 0.00, -0.00, -1.00, 1563.3, 558.0)">a</text><text xml:space="preserve" font-family="Gotham-Light,Gotham" font-size="60.0" fill="#000000" transform="matrix(1.00, 0.00, -0.00, -1.00, 1597.4, 558.0)">t</text><text xml:space="preserve" font-family="Gotham-Light,Gotham" font-size="60.0" fill="#000000" transform="matrix(1.00, 0.00, -0.00, -1.00, 1620.5, 558.0)">e</text><text xml:space="preserve" font-family="Gotham-Light,Gotham" font-size="60.0" fill="#000000" transform="matrix(1.00, 0.00, -0.00, -1.00, 1655.6, 558.0)">d</text><text xml:space="preserve" font-family="Gotham-Light,Gotham" font-size="60.0" fill="#000000" transform="matrix(1.00, 0.00, -0.00, -1.00, 1695.2, 558.0)"> </text><text xml:space="preserve" font-family="Gotham-Light,Gotham" font-size="60.0" fill="#000000" transform="matrix(1.00, 0.00, -0.00, -1.00, 1713.2, 558.0)">o</text><text xml:space="preserve" font-family="Gotham-Light,Gotham" font-size="60.0" fill="#000000" transform="matrix(1.00, 0.00, -0.00, -1.00, 1751.6, 558.0)">n</text><text xml:space="preserve" font-family="Gotham-Light,Gotham" font-size="60.0" fill="#000000" transform="matrix(1.00, 0.00, -0.00, -1.00, 1788.4, 558.0)"> </text><text xml:space="preserve" font-family="Gotham-Light,Gotham" font-size="60.0" fill="#000000" transform="matrix(1.00, 0.00, -0.00, -1.00, 171.1, 486.0)">e</text><text xml:space="preserve" font-family="Gotham-Light,Gotham" font-size="60.0" fill="#000000" transform="matrix(1.00, 0.00, -0.00, -1.00, 204.6, 486.0)">v</text><text xml:space="preserve" font-family="Gotham-Light,Gotham" font-size="60.0" fill="#000000" transform="matrix(1.00, 0.00, -0.00, -1.00, 237.8, 486.0)">e</text><text xml:space="preserve" font-family="Gotham-Light,Gotham" font-size="60.0" fill="#000000" transform="matrix(1.00, 0.00, -0.00, -1.00, 272.8, 486.0)">r</text><text xml:space="preserve" font-family="Gotham-Light,Gotham" font-size="60.0" fill="#000000" transform="matrix(1.00, 0.00, -0.00, -1.00, 296.8, 486.0)">y</text><text xml:space="preserve" font-family="Gotham-Light,Gotham" font-size="60.0" fill="#000000" transform="matrix(1.00, 0.00, -0.00, -1.00, 332.1, 486.0)"> </text><text xml:space="preserve" font-family="Gotham-Light,Gotham" font-size="60.0" fill="#000000" transform="matrix(1.00, 0.00, -0.00, -1.00, 350.1, 486.0)">s</text><text xml:space="preserve" font-family="Gotham-Light,Gotham" font-size="60.0" fill="#000000" transform="matrix(1.00, 0.00, -0.00, -1.00, 379.9, 486.0)">o</text><text xml:space="preserve" font-family="Gotham-Light,Gotham" font-size="60.0" fill="#000000" transform="matrix(1.00, 0.00, -0.00, -1.00, 418.3, 486.0)">c</text><text xml:space="preserve" font-family="Gotham-Light,Gotham" font-size="60.0" fill="#000000" transform="matrix(1.00, 0.00, -0.00, -1.00, 452.6, 486.0)">i</text><text xml:space="preserve" font-family="Gotham-Light,Gotham" font-size="60.0" fill="#000000" transform="matrix(1.00, 0.00, -0.00, -1.00, 467.5, 486.0)">a</text><text xml:space="preserve" font-family="Gotham-Light,Gotham" font-size="60.0" fill="#000000" transform="matrix(1.00, 0.00, -0.00, -1.00, 501.9, 486.0)">l</text><text xml:space="preserve" font-family="Gotham-Light,Gotham" font-size="60.0" fill="#000000" transform="matrix(1.00, 0.00, -0.00, -1.00, 516.9, 486.0)"> </text><text xml:space="preserve" font-family="Gotham-Light,Gotham" font-size="60.0" fill="#000000" transform="matrix(1.00, 0.00, -0.00, -1.00, 534.9, 486.0)">m</text><text xml:space="preserve" font-family="Gotham-Light,Gotham" font-size="60.0" fill="#000000" transform="matrix(1.00, 0.00, -0.00, -1.00, 591.9, 486.0)">e</text><text xml:space="preserve" font-family="Gotham-Light,Gotham" font-size="60.0" fill="#000000" transform="matrix(1.00, 0.00, -0.00, -1.00, 627.0, 486.0)">d</text><text xml:space="preserve" font-family="Gotham-Light,Gotham" font-size="60.0" fill="#000000" transform="matrix(1.00, 0.00, -0.00, -1.00, 666.6, 486.0)">i</text><text xml:space="preserve" font-family="Gotham-Light,Gotham" font-size="60.0" fill="#000000" transform="matrix(1.00, 0.00, -0.00, -1.00, 681.5, 486.0)">a</text><text xml:space="preserve" font-family="Gotham-Light,Gotham" font-size="60.0" fill="#000000" transform="matrix(1.00, 0.00, -0.00, -1.00, 716.0, 486.0)"> </text><text xml:space="preserve" font-family="Gotham-Light,Gotham" font-size="60.0" fill="#000000" transform="matrix(1.00, 0.00, -0.00, -1.00, 734.0, 486.0)">p</text><text xml:space="preserve" font-family="Gotham-Light,Gotham" font-size="60.0" fill="#000000" transform="matrix(1.00, 0.00, -0.00, -1.00, 773.6, 486.0)">r</text><text xml:space="preserve" font-family="Gotham-Light,Gotham" font-size="60.0" fill="#000000" transform="matrix(1.00, 0.00, -0.00, -1.00, 796.1, 486.0)">o</text><text xml:space="preserve" font-family="Gotham-Light,Gotham" font-size="60.0" fill="#000000" transform="matrix(1.00, 0.00, -0.00, -1.00, 834.5, 486.0)">p</text><text xml:space="preserve" font-family="Gotham-Light,Gotham" font-size="60.0" fill="#000000" transform="matrix(1.00, 0.00, -0.00, -1.00, 874.1, 486.0)">e</text><text xml:space="preserve" font-family="Gotham-Light,Gotham" font-size="60.0" fill="#000000" transform="matrix(1.00, 0.00, -0.00, -1.00, 909.1, 486.0)">r</text><text xml:space="preserve" font-family="Gotham-Light,Gotham" font-size="60.0" fill="#000000" transform="matrix(1.00, 0.00, -0.00, -1.00, 933.1, 486.0)">t</text><text xml:space="preserve" font-family="Gotham-Light,Gotham" font-size="60.0" fill="#000000" transform="matrix(1.00, 0.00, -0.00, -1.00, 957.1, 486.0)">y</text><text xml:space="preserve" font-family="Gotham-Light,Gotham" font-size="60.0" fill="#000000" transform="matrix(1.00, 0.00, -0.00, -1.00, 992.4, 486.0)"> </text><text xml:space="preserve" font-family="Gotham-Light,Gotham" font-size="60.0" fill="#000000" transform="matrix(1.00, 0.00, -0.00, -1.00, 1010.4, 486.0)">y</text><text xml:space="preserve" font-family="Gotham-Light,Gotham" font-size="60.0" fill="#000000" transform="matrix(1.00, 0.00, -0.00, -1.00, 1043.9, 486.0)">o</text><text xml:space="preserve" font-family="Gotham-Light,Gotham" font-size="60.0" fill="#000000" transform="matrix(1.00, 0.00, -0.00, -1.00, 1082.2, 486.0)">u</text><text xml:space="preserve" font-family="Gotham-Light,Gotham" font-size="60.0" fill="#000000" transform="matrix(1.00, 0.00, -0.00, -1.00, 1119.0, 486.0)">’</text><text xml:space="preserve" font-family="Gotham-Light,Gotham" font-size="60.0" fill="#000000" transform="matrix(1.00, 0.00, -0.00, -1.00, 1132.8, 486.0)">v</text><text xml:space="preserve" font-family="Gotham-Light,Gotham" font-size="60.0" fill="#000000" transform="matrix(1.00, 0.00, -0.00, -1.00, 1166.0, 486.0)">e</text><text xml:space="preserve" font-family="Gotham-Light,Gotham" font-size="60.0" fill="#000000" transform="matrix(1.00, 0.00, -0.00, -1.00, 1201.0, 486.0)"> </text><text xml:space="preserve" font-family="Gotham-Light,Gotham" font-size="60.0" fill="#000000" transform="matrix(1.00, 0.00, -0.00, -1.00, 1219.0, 486.0)">e</text><text xml:space="preserve" font-family="Gotham-Light,Gotham" font-size="60.0" fill="#000000" transform="matrix(1.00, 0.00, -0.00, -1.00, 1252.5, 486.0)">v</text><text xml:space="preserve" font-family="Gotham-Light,Gotham" font-size="60.0" fill="#000000" transform="matrix(1.00, 0.00, -0.00, -1.00, 1285.7, 486.0)">e</text><text xml:space="preserve" font-family="Gotham-Light,Gotham" font-size="60.0" fill="#000000" transform="matrix(1.00, 0.00, -0.00, -1.00, 1320.7, 486.0)">r</text><text xml:space="preserve" font-family="Gotham-Light,Gotham" font-size="60.0" fill="#000000" transform="matrix(1.00, 0.00, -0.00, -1.00, 1344.7, 486.0)"> </text><text xml:space="preserve" font-family="Gotham-Light,Gotham" font-size="60.0" fill="#000000" transform="matrix(1.00, 0.00, -0.00, -1.00, 1362.7, 486.0)">e</text><text xml:space="preserve" font-family="Gotham-Light,Gotham" font-size="60.0" fill="#000000" transform="matrix(1.00, 0.00, -0.00, -1.00, 1397.7, 486.0)">n</text><text xml:space="preserve" font-family="Gotham-Light,Gotham" font-size="60.0" fill="#000000" transform="matrix(1.00, 0.00, -0.00, -1.00, 1434.5, 486.0)">c</text><text xml:space="preserve" font-family="Gotham-Light,Gotham" font-size="60.0" fill="#000000" transform="matrix(1.00, 0.00, -0.00, -1.00, 1467.9, 486.0)">o</text><text xml:space="preserve" font-family="Gotham-Light,Gotham" font-size="60.0" fill="#000000" transform="matrix(1.00, 0.00, -0.00, -1.00, 1506.3, 486.0)">u</text><text xml:space="preserve" font-family="Gotham-Light,Gotham" font-size="60.0" fill="#000000" transform="matrix(1.00, 0.00, -0.00, -1.00, 1543.0, 486.0)">n</text><text xml:space="preserve" font-family="Gotham-Light,Gotham" font-size="60.0" fill="#000000" transform="matrix(1.00, 0.00, -0.00, -1.00, 1579.8, 486.0)">t</text><text xml:space="preserve" font-family="Gotham-Light,Gotham" font-size="60.0" fill="#000000" transform="matrix(1.00, 0.00, -0.00, -1.00, 1602.9, 486.0)">e</text><text xml:space="preserve" font-family="Gotham-Light,Gotham" font-size="60.0" fill="#000000" transform="matrix(1.00, 0.00, -0.00, -1.00, 1638.0, 486.0)">r</text><text xml:space="preserve" font-family="Gotham-Light,Gotham" font-size="60.0" fill="#000000" transform="matrix(1.00, 0.00, -0.00, -1.00, 1660.5, 486.0)">e</text><text xml:space="preserve" font-family="Gotham-Light,Gotham" font-size="60.0" fill="#000000" transform="matrix(1.00, 0.00, -0.00, -1.00, 1695.5, 486.0)">d</text><text xml:space="preserve" font-family="Gotham-Light,Gotham" font-size="60.0" fill="#000000" transform="matrix(1.00, 0.00, -0.00, -1.00, 1735.1, 486.0)">.</text></g></svg>