<?xml version="1.0" encoding="UTF-8" standalone="no"?><svg xmlns="http://www.w3.org/2000/svg" xmlns:xlink="http://www.w3.org/1999/xlink" clip-rule="evenodd" stroke-miterlimit="10" viewBox="0 0 694 239"><desc>SVG generated by Keynote</desc><defs></defs><g transform="matrix(1.00, 0.00, -0.00, -1.00, 0.0, 239.0)"><image xlink:href="01627A511B62CA1FD4EEA258F1143BB8.png" width="537.00" height="63.00" transform="matrix(1.00, 0.00, -0.00, -1.00, 77.0, 237.0)"></image><text xml:space="preserve" font-family="Gotham-Black,Gotham" font-weight="bold" font-size="72.0" fill="#FEFFFE" transform="matrix(1.00, 0.00, -0.00, -1.00, 79.6, 182.4)">G</text><text xml:space="preserve" font-family="Gotham-Black,Gotham" font-weight="bold" font-size="72.0" fill="#FEFFFE" transform="matrix(1.00, 0.00, -0.00, -1.00, 138.5, 182.4)">O</text><text xml:space="preserve" font-family="Gotham-Black,Gotham" font-weight="bold" font-size="72.0" fill="#FEFFFE" transform="matrix(1.00, 0.00, -0.00, -1.00, 199.8, 182.4)">T</text><text xml:space="preserve" font-family="Gotham-Black,Gotham" font-weight="bold" font-size="72.0" fill="#FEFFFE" transform="matrix(1.00, 0.00, -0.00, -1.00, 250.9, 182.4)">T</text><text xml:space="preserve" font-family="Gotham-Black,Gotham" font-weight="bold" font-size="72.0" fill="#FEFFFE" transform="matrix(1.00, 0.00, -0.00, -1.00, 295.6, 182.4)">A</text><text xml:space="preserve" font-family="Gotham-Black,Gotham" font-weight="bold" font-size="72.0" fill="#FEFFFE" transform="matrix(1.00, 0.00, -0.00, -1.00, 356.4, 182.4)"> </text><text xml:space="preserve" font-family="Gotham-Black,Gotham" font-weight="bold" font-size="72.0" fill="#FEFFFE" transform="matrix(1.00, 0.00, -0.00, -1.00, 379.9, 182.4)">M</text><text xml:space="preserve" font-family="Gotham-Black,Gotham" font-weight="bold" font-size="72.0" fill="#FEFFFE" transform="matrix(1.00, 0.00, -0.00, -1.00, 446.0, 182.4)">A</text><text xml:space="preserve" font-family="Gotham-Black,Gotham" font-weight="bold" font-size="72.0" fill="#FEFFFE" transform="matrix(1.00, 0.00, -0.00, -1.00, 506.9, 182.4)">K</text><text xml:space="preserve" font-family="Gotham-Black,Gotham" font-weight="bold" font-size="72.0" fill="#FEFFFE" transform="matrix(1.00, 0.00, -0.00, -1.00, 563.0, 182.4)">E</text><text xml:space="preserve" font-family="Gotham-Black,Gotham" font-weight="bold" font-size="72.0" fill="#FEFFFE" transform="matrix(1.00, 0.00, -0.00, -1.00, 614.7, 182.4)"> </text><image xlink:href="D845D523FB2647A23DD1417B386DFADC.png" width="567.00" height="63.00" transform="matrix(1.00, 0.00, -0.00, -1.00, 61.0, 151.0)"></image><text xml:space="preserve" font-family="Gotham-Black,Gotham" font-weight="bold" font-size="72.0" fill="#FEFFFE" transform="matrix(1.00, 0.00, -0.00, -1.00, 65.4, 96.4)">W</text><text xml:space="preserve" font-family="Gotham-Black,Gotham" font-weight="bold" font-size="72.0" fill="#FEFFFE" transform="matrix(1.00, 0.00, -0.00, -1.00, 143.0, 96.4)">A</text><text xml:space="preserve" font-family="Gotham-Black,Gotham" font-weight="bold" font-size="72.0" fill="#FEFFFE" transform="matrix(1.00, 0.00, -0.00, -1.00, 195.9, 96.4)">Y</text><text xml:space="preserve" font-family="Gotham-Black,Gotham" font-weight="bold" font-size="72.0" fill="#FEFFFE" transform="matrix(1.00, 0.00, -0.00, -1.00, 251.5, 96.4)"> </text><text xml:space="preserve" font-family="Gotham-Black,Gotham" font-weight="bold" font-size="72.0" fill="#FEFFFE" transform="matrix(1.00, 0.00, -0.00, -1.00, 275.1, 96.4)">F</text><text xml:space="preserve" font-family="Gotham-Black,Gotham" font-weight="bold" font-size="72.0" fill="#FEFFFE" transform="matrix(1.00, 0.00, -0.00, -1.00, 325.3, 96.4)">O</text><text xml:space="preserve" font-family="Gotham-Black,Gotham" font-weight="bold" font-size="72.0" fill="#FEFFFE" transform="matrix(1.00, 0.00, -0.00, -1.00, 388.8, 96.4)">R</text><text xml:space="preserve" font-family="Gotham-Black,Gotham" font-weight="bold" font-size="72.0" fill="#FEFFFE" transform="matrix(1.00, 0.00, -0.00, -1.00, 444.1, 96.4)"> </text><text xml:space="preserve" font-family="Gotham-Black,Gotham" font-weight="bold" font-size="72.0" fill="#FEFFFE" transform="matrix(1.00, 0.00, -0.00, -1.00, 467.7, 96.4)">T</text><text xml:space="preserve" font-family="Gotham-Black,Gotham" font-weight="bold" font-size="72.0" fill="#FEFFFE" transform="matrix(1.00, 0.00, -0.00, -1.00, 518.8, 96.4)">H</text><text xml:space="preserve" font-family="Gotham-Black,Gotham" font-weight="bold" font-size="72.0" fill="#FEFFFE" transform="matrix(1.00, 0.00, -0.00, -1.00, 577.2, 96.4)">E</text><text xml:space="preserve" font-family="Gotham-Black,Gotham" font-weight="bold" font-size="72.0" fill="#FEFFFE" transform="matrix(1.00, 0.00, -0.00, -1.00, 628.8, 96.4)"> </text><image xlink:href="104BCDA2F4B14CAC220914B06706D0AE.png" width="690.00" height="63.00" transform="matrix(1.00, 0.00, -0.00, -1.00, 2.0, 65.0)"></image><text xml:space="preserve" font-family="Gotham-Black,Gotham" font-weight="bold" font-size="72.0" fill="#FEFFFE" transform="matrix(1.00, 0.00, -0.00, -1.00, 2.8, 10.4)">H</text><text xml:space="preserve" font-family="Gotham-Black,Gotham" font-weight="bold" font-size="72.0" fill="#FEFFFE" transform="matrix(1.00, 0.00, -0.00, -1.00, 61.2, 10.4)">O</text><text xml:space="preserve" font-family="Gotham-Black,Gotham" font-weight="bold" font-size="72.0" fill="#FEFFFE" transform="matrix(1.00, 0.00, -0.00, -1.00, 124.6, 10.4)">M</text><text xml:space="preserve" font-family="Gotham-Black,Gotham" font-weight="bold" font-size="72.0" fill="#FEFFFE" transform="matrix(1.00, 0.00, -0.00, -1.00, 190.7, 10.4)">O</text><text xml:space="preserve" font-family="Gotham-Black,Gotham" font-weight="bold" font-size="72.0" fill="#FEFFFE" transform="matrix(1.00, 0.00, -0.00, -1.00, 254.2, 10.4)"> </text><text xml:space="preserve" font-family="Gotham-Black,Gotham" font-weight="bold" font-size="72.0" fill="#FEFFFE" transform="matrix(1.00, 0.00, -0.00, -1.00, 277.7, 10.4)">S</text><text xml:space="preserve" font-family="Gotham-Black,Gotham" font-weight="bold" font-size="72.0" fill="#FEFFFE" transform="matrix(1.00, 0.00, -0.00, -1.00, 328.3, 10.4)">U</text><text xml:space="preserve" font-family="Gotham-Black,Gotham" font-weight="bold" font-size="72.0" fill="#FEFFFE" transform="matrix(1.00, 0.00, -0.00, -1.00, 386.4, 10.4)">P</text><text xml:space="preserve" font-family="Gotham-Black,Gotham" font-weight="bold" font-size="72.0" fill="#FEFFFE" transform="matrix(1.00, 0.00, -0.00, -1.00, 438.5, 10.4)">E</text><text xml:space="preserve" font-family="Gotham-Black,Gotham" font-weight="bold" font-size="72.0" fill="#FEFFFE" transform="matrix(1.00, 0.00, -0.00, -1.00, 490.1, 10.4)">R</text><text xml:space="preserve" font-family="Gotham-Black,Gotham" font-weight="bold" font-size="72.0" fill="#FEFFFE" transform="matrix(1.00, 0.00, -0.00, -1.00, 545.5, 10.4)">I</text><text xml:space="preserve" font-family="Gotham-Black,Gotham" font-weight="bold" font-size="72.0" fill="#FEFFFE" transform="matrix(1.00, 0.00, -0.00, -1.00, 572.6, 10.4)">O</text><text xml:space="preserve" font-family="Gotham-Black,Gotham" font-weight="bold" font-size="72.0" fill="#FEFFFE" transform="matrix(1.00, 0.00, -0.00, -1.00, 636.1, 10.4)">R</text></g></svg>