<?xml version="1.0" encoding="UTF-8" standalone="no"?><svg xmlns="http://www.w3.org/2000/svg" xmlns:xlink="http://www.w3.org/1999/xlink" clip-rule="evenodd" stroke-miterlimit="10" viewBox="0 0 1920 1080"><desc>SVG generated by Keynote</desc><defs></defs><g transform="matrix(1.00, 0.00, -0.00, -1.00, 0.0, 1080.0)"><path d="M 0.0 1080.0 L 1920.0 1080.0 L 1920.0 0.0 L 0.0 0.0 Z M 0.0 1080.0 " fill="#FEFFFF"></path><text xml:space="preserve" font-family="Gotham-Light,Gotham" font-size="78.0" fill="#000000" transform="matrix(1.00, 0.00, -0.00, -1.00, 621.1, 516.4)">g</text><text xml:space="preserve" font-family="Gotham-Light,Gotham" font-size="78.0" fill="#000000" transform="matrix(1.00, 0.00, -0.00, -1.00, 672.6, 516.4)">o</text><text xml:space="preserve" font-family="Gotham-Light,Gotham" font-size="78.0" fill="#000000" transform="matrix(1.00, 0.00, -0.00, -1.00, 722.5, 516.4)">i</text><text xml:space="preserve" font-family="Gotham-Light,Gotham" font-size="78.0" fill="#000000" transform="matrix(1.00, 0.00, -0.00, -1.00, 741.9, 516.4)">n</text><text xml:space="preserve" font-family="Gotham-Light,Gotham" font-size="78.0" fill="#000000" transform="matrix(1.00, 0.00, -0.00, -1.00, 789.7, 516.4)">g</text><text xml:space="preserve" font-family="Gotham-Light,Gotham" font-size="78.0" fill="#000000" transform="matrix(1.00, 0.00, -0.00, -1.00, 841.2, 516.4)"> </text><text xml:space="preserve" font-family="Gotham-Light,Gotham" font-size="78.0" fill="#000000" transform="matrix(1.00, 0.00, -0.00, -1.00, 864.6, 516.4)">f</text><text xml:space="preserve" font-family="Gotham-Light,Gotham" font-size="78.0" fill="#000000" transform="matrix(1.00, 0.00, -0.00, -1.00, 892.1, 516.4)">o</text><text xml:space="preserve" font-family="Gotham-Light,Gotham" font-size="78.0" fill="#000000" transform="matrix(1.00, 0.00, -0.00, -1.00, 942.0, 516.4)">r</text><text xml:space="preserve" font-family="Gotham-Light,Gotham" font-size="78.0" fill="#000000" transform="matrix(1.00, 0.00, -0.00, -1.00, 973.2, 516.4)">w</text><text xml:space="preserve" font-family="Gotham-Light,Gotham" font-size="78.0" fill="#000000" transform="matrix(1.00, 0.00, -0.00, -1.00, 1038.8, 516.4)">a</text><text xml:space="preserve" font-family="Gotham-Light,Gotham" font-size="78.0" fill="#000000" transform="matrix(1.00, 0.00, -0.00, -1.00, 1083.6, 516.4)">r</text><text xml:space="preserve" font-family="Gotham-Light,Gotham" font-size="78.0" fill="#000000" transform="matrix(1.00, 0.00, -0.00, -1.00, 1112.8, 516.4)">d</text><text xml:space="preserve" font-family="Gotham-Light,Gotham" font-size="78.0" fill="#000000" transform="matrix(1.00, 0.00, -0.00, -1.00, 1164.3, 516.4)"> </text><text xml:space="preserve" font-family="Gotham-Light,Gotham" font-size="78.0" fill="#000000" transform="matrix(1.00, 0.00, -0.00, -1.00, 1187.7, 516.4)">i</text><text xml:space="preserve" font-family="Gotham-Light,Gotham" font-size="78.0" fill="#000000" transform="matrix(1.00, 0.00, -0.00, -1.00, 1207.1, 516.4)">s</text><text xml:space="preserve" font-family="Gotham-Light,Gotham" font-size="78.0" fill="#000000" transform="matrix(1.00, 0.00, -0.00, -1.00, 1245.9, 516.4)">…</text></g></svg>